<?xml version="1.0" standalone="no"?>
<!DOCTYPE svg PUBLIC "-//W3C//DTD SVG 20010904//EN"
 "http://www.w3.org/TR/2001/REC-SVG-20010904/DTD/svg10.dtd">
<svg version="1.0" xmlns="http://www.w3.org/2000/svg"
 width="203.000000pt" height="54.000000pt" viewBox="0 0 203.000000 54.000000"
 preserveAspectRatio="xMidYMid meet">

<g transform="translate(0.000000,54.000000) scale(0.100000,-0.100000)"
fill="#000000" stroke="none">
<path d="M576 468 c-3 -13 -10 -62 -14 -109 -10 -91 -60 -219 -86 -219 -19 0
-27 38 -17 83 11 47 29 70 53 64 10 -3 18 -2 18 3 0 14 -31 20 -51 10 -20 -11
-49 -60 -49 -84 0 -8 -12 -29 -27 -46 -25 -30 -27 -31 -40 -14 -18 25 -17 136
3 223 16 69 14 101 -5 101 -17 0 -31 -62 -37 -169 -10 -156 21 -217 82 -160
22 21 22 21 28 1 17 -52 64 -29 100 48 18 40 21 42 23 20 6 -51 24 -98 39
-104 20 -8 51 9 64 35 11 20 12 20 31 -5 29 -37 70 -35 103 5 14 17 27 36 27
42 1 7 4 -3 8 -22 10 -57 28 -48 67 33 19 42 39 76 44 76 4 0 7 -33 6 -74 -1
-86 10 -106 47 -89 24 11 77 109 77 141 -1 9 -16 -16 -35 -55 -47 -102 -65
-99 -65 11 0 121 -25 124 -83 11 l-26 -50 -1 68 c0 74 -14 89 -24 26 -14 -88
-100 -176 -120 -123 -4 10 7 31 29 57 55 64 43 127 -19 99 -15 -6 -30 -31 -45
-70 -26 -73 -52 -108 -74 -99 -24 9 -32 105 -17 206 7 47 14 99 14 115 1 35
-21 47 -28 14z m184 -195 c0 -28 -43 -93 -54 -82 -7 7 13 80 26 97 17 20 28
14 28 -15z"/>
<path d="M1397 474 c-4 -4 -7 -66 -7 -138 0 -79 -4 -126 -9 -121 -5 6 -37 64
-72 130 -34 66 -67 120 -73 120 -8 0 -11 -53 -11 -173 0 -132 3 -172 12 -172
10 0 13 33 13 136 0 74 3 133 8 130 4 -2 36 -61 72 -130 36 -69 69 -124 75
-123 5 2 9 69 10 158 0 85 3 160 5 168 5 15 -12 26 -23 15z"/>
<path d="M113 453 c-26 -17 -30 -33 -9 -33 22 0 26 -24 26 -167 l0 -135 65 4
c37 2 70 10 77 17 11 12 9 13 -7 6 -11 -4 -39 -10 -62 -12 l-43 -6 0 66 0 66
42 3 c23 2 43 8 45 13 2 6 -15 9 -42 7 l-45 -4 0 77 0 78 63 -7 c71 -7 59 8
-15 18 -26 4 -50 11 -53 17 -8 12 -16 11 -42 -8z"/>
<path d="M1660 419 c0 -24 23 -21 28 4 2 10 -3 17 -12 17 -10 0 -16 -9 -16
-21z"/>
<path d="M1782 317 c-6 -7 -15 -32 -20 -55 -14 -59 -60 -134 -80 -130 -14 3
-17 15 -15 68 1 36 4 77 7 93 4 19 1 27 -8 27 -8 0 -16 -17 -20 -46 -14 -102
-3 -164 29 -164 21 0 63 49 83 97 13 33 22 43 41 43 22 0 23 -2 17 -45 -12
-77 13 -111 60 -80 24 16 91 135 76 135 -4 0 -13 -15 -20 -32 -15 -43 -71
-110 -84 -102 -6 4 -8 35 -6 72 3 66 3 67 -24 72 -22 4 -25 8 -18 20 21 32 5
55 -18 27z"/>
<path d="M1494 288 c-15 -23 -21 -91 -12 -124 10 -37 37 -58 63 -48 40 16 65
133 35 168 -15 19 -76 21 -86 4z m76 -17 c23 -44 -4 -146 -37 -139 -35 7 -39
118 -5 146 22 17 30 15 42 -7z"/>
</g>
</svg>
